<?xml version="1.0" encoding="UTF-8" standalone="no"?>
<svg
   width="506.99997"
   height="187"
   viewBox="0 0 506.99997 187"
   fill="none"
   version="1.1"
   id="svg32"
   sodipodi:docname="banner.svg"
   inkscape:version="1.2.1 (9c6d41e410, 2022-07-14)"
   xmlns:inkscape="http://www.inkscape.org/namespaces/inkscape"
   xmlns:sodipodi="http://sodipodi.sourceforge.net/DTD/sodipodi-0.dtd"
   xmlns="http://www.w3.org/2000/svg"
   xmlns:svg="http://www.w3.org/2000/svg">
  <defs
     id="defs36" />
  <sodipodi:namedview
     id="namedview34"
     pagecolor="#505050"
     bordercolor="#ffffff"
     borderopacity="1"
     inkscape:showpageshadow="0"
     inkscape:pageopacity="0"
     inkscape:pagecheckerboard="1"
     inkscape:deskcolor="#505050"
     showgrid="false"
     inkscape:zoom="3.455432"
     inkscape:cx="191.58241"
     inkscape:cy="140.21402"
     inkscape:window-width="3840"
     inkscape:window-height="2054"
     inkscape:window-x="7285"
     inkscape:window-y="-11"
     inkscape:window-maximized="1"
     inkscape:current-layer="layer3" />
  <g
     inkscape:groupmode="layer"
     id="layer1"
     inkscape:label="main"
     transform="matrix(0.73046875,0,0,0.73046875,-1.4442076e-6,1.9383189e-7)">
    <g
       inkscape:groupmode="layer"
       id="layer3"
       inkscape:label="github-actions"
       transform="matrix(1.368984,0,0,1.368984,438.07482,0)">
      <rect
         width="256"
         height="256"
         rx="60"
         fill="#242938"
         id="rect2"
         x="0"
         y="0"
         transform="scale(0.73046875)"
         sodipodi:insensitive="true" />
      <path
         fill-rule="evenodd"
         clip-rule="evenodd"
         d="M 76.0652,43 C 94.3271,43 109.13,57.8034 109.13,76.0652 109.13,94.3271 94.3271,109.13 76.0652,109.13 57.8034,109.13 43,94.3271 43,76.0652 43,57.8034 57.8034,43 76.0652,43 Z"
         stroke="#2088ff"
         stroke-width="7.34783"
         stroke-linecap="round"
         stroke-linejoin="round"
         id="path4"
         transform="scale(0.73046875)"
         sodipodi:insensitive="true" />
      <path
         fill-rule="evenodd"
         clip-rule="evenodd"
         d="m 123.826,109.13 c 12.174,0 22.044,9.87 22.044,22.044 0,12.174 -9.87,22.043 -22.044,22.043 -12.174,0 -22.043,-9.869 -22.043,-22.043 0,-12.174 9.869,-22.044 22.043,-22.044 z"
         stroke="#2088ff"
         stroke-width="7.34783"
         stroke-linecap="round"
         stroke-linejoin="round"
         id="path6"
         transform="scale(0.73046875)"
         sodipodi:insensitive="true" />
      <path
         fill-rule="evenodd"
         clip-rule="evenodd"
         d="m 123.826,167.913 c 12.174,0 22.044,9.869 22.044,22.044 0,12.174 -9.87,22.043 -22.044,22.043 -12.174,0 -22.043,-9.869 -22.043,-22.043 0,-12.175 9.869,-22.044 22.043,-22.044 z"
         stroke="#2088ff"
         stroke-width="7.34783"
         stroke-linecap="round"
         stroke-linejoin="round"
         id="path8"
         transform="scale(0.73046875)"
         sodipodi:insensitive="true" />
      <path
         fill-rule="evenodd"
         clip-rule="evenodd"
         d="m 189.957,167.913 c 12.174,0 22.043,9.869 22.043,22.044 0,12.174 -9.869,22.043 -22.043,22.043 -12.175,0 -22.044,-9.869 -22.044,-22.043 0,-12.175 9.869,-22.044 22.044,-22.044 z"
         stroke="#79b8ff"
         stroke-width="7.34783"
         stroke-linecap="round"
         stroke-linejoin="round"
         id="path10"
         transform="scale(0.73046875)"
         sodipodi:insensitive="true" />
      <path
         d="m 131.308,126.056 -11.276,11.261 -5.477,-5.458"
         stroke="#2088ff"
         stroke-width="7.34783"
         stroke-linecap="round"
         stroke-linejoin="round"
         id="path12"
         transform="scale(0.73046875)"
         sodipodi:insensitive="true" />
      <path
         fill-rule="evenodd"
         clip-rule="evenodd"
         d="m 189.957,109.13 c 12.174,0 22.043,9.87 22.043,22.044 0,12.174 -9.869,22.043 -22.043,22.043 -12.175,0 -22.044,-9.869 -22.044,-22.043 0,-12.174 9.869,-22.044 22.044,-22.044 z"
         stroke="#2088ff"
         stroke-width="7.34783"
         stroke-linecap="round"
         stroke-linejoin="round"
         id="path14"
         transform="scale(0.73046875)"
         sodipodi:insensitive="true" />
      <path
         d="m 197.438,126.056 -11.276,11.261 -5.476,-5.458"
         stroke="#2088ff"
         stroke-width="7.34783"
         stroke-linecap="round"
         stroke-linejoin="round"
         id="path16"
         transform="scale(0.73046875)"
         sodipodi:insensitive="true" />
      <path
         d="m 65.0435,64.3532 c 0,-2.8915 3.1856,-4.6497 5.6321,-3.1086 L 89.461,73.0784 c 2.2973,1.4471 2.2852,4.8002 -0.022,6.2309 L 70.6534,90.9574 c -2.4474,1.5173 -5.6099,-0.2429 -5.6099,-3.1225 z"
         stroke="#2088ff"
         stroke-width="7.34783"
         stroke-linecap="round"
         stroke-linejoin="round"
         id="path18"
         transform="scale(0.73046875)"
         sodipodi:insensitive="true" />
      <path
         d="m 72.3914,109.13 v 55.109 c 0,14.203 11.6727,25.717 25.7173,25.717 h 3.6743"
         stroke="#2088ff"
         stroke-width="7.34783"
         stroke-linecap="round"
         stroke-linejoin="round"
         id="path20"
         transform="scale(0.73046875)"
         sodipodi:insensitive="true" />
      <path
         d="m 101.595,134.847 c 2.029,0 3.674,-1.644 3.674,-3.674 0,-2.029 -1.645,-3.673 -3.674,-3.673 z M 68.7173,109.259 c 0,14.132 11.4563,25.588 25.5881,25.588 V 127.5 c -10.0739,0 -18.2403,-8.167 -18.2403,-18.241 z m 25.5881,25.588 h 7.2896 V 127.5 h -7.2896 z"
         fill="#2088ff"
         id="path22"
         transform="scale(0.73046875)"
         sodipodi:insensitive="true" />
      <path
         d="m 146.071,131.174 h 21.84"
         stroke="#2088ff"
         stroke-width="7.34783"
         stroke-linecap="round"
         stroke-linejoin="round"
         id="path24"
         transform="scale(0.73046875)"
         sodipodi:insensitive="true" />
      <path
         fill-rule="evenodd"
         clip-rule="evenodd"
         d="m 116.478,186.283 c 2.028,0 3.674,1.646 3.674,3.674 0,2.03 -1.646,3.674 -3.674,3.674 -2.027,0 -3.674,-1.644 -3.674,-3.674 0,-2.028 1.647,-3.674 3.674,-3.674 z"
         fill="#79b8ff"
         id="path26"
         transform="scale(0.73046875)"
         sodipodi:insensitive="true" />
      <path
         fill-rule="evenodd"
         clip-rule="evenodd"
         d="m 131.174,186.283 c 2.027,0 3.674,1.646 3.674,3.674 0,2.03 -1.647,3.674 -3.674,3.674 -2.027,0 -3.674,-1.644 -3.674,-3.674 0,-2.028 1.647,-3.674 3.674,-3.674 z"
         fill="#79b8ff"
         id="path28"
         transform="scale(0.73046875)"
         sodipodi:insensitive="true" />
      <path
         d="m 164.257,189.981 -3.72,0.122"
         stroke="#79b8ff"
         stroke-width="7.34783"
         stroke-linecap="round"
         id="path30"
         transform="scale(0.73046875)"
         sodipodi:insensitive="true" />
    </g>
    <g
       inkscape:groupmode="layer"
       id="layer4"
       inkscape:label="plus"
       transform="matrix(1.368984,0,0,1.368984,3.8612416,63.006636)">
      <path
         d="m 259.91134,-11.35259 c -83.33334,0 -41.66667,0 0,0 z M 237.2866,96.58276 V 60.86848 h -35.71428 c -7.42188,0 -13.39286,-5.97099 -13.39286,-13.39286 0,-7.42188 5.97098,-13.39286 13.39286,-13.39286 H 237.2866 V -1.63152 c 0,-7.42188 5.97098,-13.39286 13.39286,-13.39286 7.42188,0 13.39286,5.97098 13.39286,13.39286 v 35.71428 h 35.71428 c 7.42188,0 13.39286,5.97098 13.39286,13.39286 0,7.42187 -5.97098,13.39286 -13.39286,13.39286 h -35.71428 v 35.71428 c 0,7.42188 -5.97098,13.39286 -13.39286,13.39286 -7.42188,0 -13.39286,-5.97098 -13.39286,-13.39286 z"
         id="path2"
         sodipodi:nodetypes="ccscssscssscssscsss"
         style="fill:#c8c8c8;fill-opacity:1;stroke:none;stroke-width:0.558036"
         sodipodi:insensitive="true" />
    </g>
    <g
       inkscape:groupmode="layer"
       id="layer5"
       inkscape:label="deno"
       transform="matrix(1.368984,0,0,1.368984,279.97801,25.047154)">
      <path
         d="m 150.29715,47.51009 a 128,128 0 1 1 0,256 128,128 0 0 1 0,-256 z"
         id="path4-6"
         style="fill:#000000;fill-opacity:1;stroke-width:0.05"
         transform="matrix(0.73046873,0,0,0.73046873,-220.80255,-53.000798)"
         inkscape:label="background"
         sodipodi:insensitive="true" />
      <path
         fill="#ffffff"
         d="m 145.29715,119.96009 c -37.2,0 -66.200002,23.45 -66.200002,52.6 0,27.5 26.650002,45.05 67.950002,44.2 l 1.25,-0.05 4.55,-0.15 -1.15,3 0.15,0.3 a 33.4,33.4 0 0 1 0.9,2.35 l 0.1,0.3 0.15,0.5 0.2,0.7 0.15,0.45 0.2,0.5 0.15,0.55 0.2,0.8 0.25,0.85 0.15,0.55 0.25,0.9 0.25,0.95 0.2,0.95 0.25,1 0.2,0.7 0.25,1.1 0.25,1.1 0.35,1.5 0.15,0.8 0.25,1.2 0.25,1.25 0.3,1.3 0.35,1.85 0.3,1.5 0.4,2.1 0.2,1.05 0.35,1.65 0.3,1.7 0.4,2.3 0.45,2.4 0.4,2.5 0.45,2.55 0.45,2.6 0.45,2.7 0.45,2.8 0.35,2.15 0.55,3.65 0.25,1.5 0.6,3.85 0.45,3.15 0.4,2.4 0.45,3.3 0.25,1.65 c 27.45,-3.65 51.85,-16.95 69.65,-36.4 l 0.55,-0.6 -2.55,-9.5 -6.75,-25.25 -4.2,-15.7 -3.7,-13.8 -2.3,-8.4 -1.45,-5.3 -0.85,-3.2 -0.8,-2.8 -0.3,-1.2 -0.2,-0.65 -0.1,-0.35 -0.1,-0.3 c -3.9,-12.55 -11.45,-23.65 -21.75,-31.7 -12.1,-9.45 -27.45,-14.4 -45.35,-14.4 z m -32.7,133.45 c -3.25,-0.9 -6.65,1 -7.6,4.25 l -0.05,0.15 -5.600002,20.8 a 114.35,114.35 0 0 0 10.750002,4.65 l 0.85,0.35 6.05,-22.55 0.05,-0.15 c 0.8,-3.3 -1.15,-6.65 -4.45,-7.5 z m 34.85,-15.25 c -3.3,-0.9 -6.7,1 -7.65,4.25 l -0.05,0.15 -8.5,31.5 v 0.15 a 6.25,6.25 0 0 0 12.05,3.25 l 0.05,-0.15 8.5,-31.5 v -0.15 l 0.15,-0.7 0.05,-0.25 -0.2,-1.05 -0.3,-1.45 -0.2,-0.9 a 6.25,6.25 0 0 0 -3.9,-3.15 z m -59.250002,-32.45 -0.4,0.95 -0.05,0.2 -8.5,31.5 -0.05,0.15 a 6.25,6.25 0 0 0 12.05,3.3 l 0.05,-0.15 7.7,-28.6 c -4,-2.1 -7.65,-4.6 -10.8,-7.35 z m -20.25,-36.25 c -3.3,-0.85 -6.7,1.05 -7.65,4.25 l -0.05,0.15 -8.5,31.5 v 0.15 a 6.25,6.25 0 0 0 12.05,3.3 l 0.05,-0.15 8.5,-31.5 v -0.15 c 0.8,-3.3 -1.15,-6.65 -4.4,-7.55 z m 190.550002,-7.15 c -3.25,-0.85 -6.65,1.05 -7.6,4.25 l -0.05,0.15 -8.5,31.5 -0.05,0.15 a 6.270965,6.270965 0 0 0 12.1,3.3 v -0.15 l 8.55,-31.5 v -0.2 c 0.8,-3.25 -1.15,-6.6 -4.45,-7.5 z m -209.100002,-42.05 a 114.2,114.2 0 0 0 -13.35,41.9 6.2,6.2 0 0 0 3.1,1.9 c 3.25,0.85 6.65,-1.05 7.6,-4.25 l 0.05,-0.15 8.5,-31.5 0.05,-0.15 c 0.8,-3.3 -1.15,-6.65 -4.45,-7.55 a 6.35,6.35 0 0 0 -1.5,-0.2 z m 187.600002,0.2 c -3.3,-0.85 -6.65,1.05 -7.65,4.25 v 0.15 l -8.5,31.5 -0.05,0.15 a 6.25,6.25 0 0 0 12.05,3.3 l 0.05,-0.15 8.5,-31.5 0.05,-0.15 c 0.8,-3.3 -1.2,-6.65 -4.45,-7.55 z"
         id="path6-9"
         style="stroke-width:0.05"
         transform="matrix(0.73046873,0,0,0.73046873,-220.80255,-53.000798)"
         inkscape:label="head"
         sodipodi:insensitive="true" />
      <path
         fill="#ffffff"
         d="m 86.397148,90.51009 c -3.25,-0.85 -6.65,1.05 -7.6,4.25 l -0.05,0.15 -8.5,31.5 -0.05,0.15 a 6.25,6.25 0 0 0 12.05,3.3 l 0.05,-0.15 8.5,-31.5 0.05,-0.2 c 0.8,-3.25 -1.15,-6.6 -4.45,-7.5 z m 109.250002,5.95 c -3.3,-0.85 -6.7,1.05 -7.65,4.25 l -0.05,0.15 -5.7,21.2 a 69.95,69.95 0 0 1 10.55,6.4 l 0.55,0.45 6.7,-24.75 v -0.15 c 0.8,-3.3 -1.15,-6.65 -4.4,-7.55 z m -55.6,-35.5 a 114.95,114.95 0 0 0 -11.9,1.7 l -0.85,0.15 -7.9,29.35 -0.05,0.15 a 6.25,6.25 0 0 0 12.05,3.25 l 0.05,-0.15 8.5,-31.5 0.05,-0.15 a 6.2,6.2 0 0 0 0.05,-2.8 z m 78.2,21.75 -1.65,6.2 -0.05,0.15 a 6.25,6.25 0 0 0 12.05,3.25 l 0.05,-0.15 0.2,-0.65 a 115.6,115.6 0 0 0 -9.85,-8.25 z m -49.45,-20.7 -3,11.15 -0.05,0.15 a 6.25,6.25 0 0 0 12.05,3.25 l 0.05,-0.15 3.15,-11.75 a 114.3,114.3 0 0 0 -11.3,-2.5 z"
         id="path10-1"
         style="stroke-width:0.05"
         transform="matrix(0.73046873,0,0,0.73046873,-220.80255,-53.000798)"
         inkscape:label="rain"
         sodipodi:insensitive="true" />
      <path
         d="m 153.29715,141.01009 a 8,8 0 1 1 0,16 8,8 0 0 1 0,-16 z"
         id="path8-7"
         style="display:inline;fill:#000000;fill-opacity:1;stroke-width:0.05"
         transform="matrix(0.73046873,0,0,0.73046873,-220.80255,-53.000798)"
         inkscape:label="eye"
         sodipodi:insensitive="true" />
    </g>
  </g>
</svg>
